<?xml version="1.0" encoding="utf-8"?>
<!-- Generator: Adobe Illustrator 13.0.0, SVG Export Plug-In . SVG Version: 6.00 Build 14948)  -->
<!DOCTYPE svg PUBLIC "-//W3C//DTD SVG 1.1//EN" "http://www.w3.org/Graphics/SVG/1.1/DTD/svg11.dtd">
<svg version="1.1" id="Layer_1" xmlns="http://www.w3.org/2000/svg" xmlns:xlink="http://www.w3.org/1999/xlink" x="0px" y="0px"
	 width="257.749px" height="255.999px" viewBox="0 0 257.749 255.999" enable-background="new 0 0 257.749 255.999"
	 xml:space="preserve">
<g>
	<path fill-rule="evenodd" clip-rule="evenodd" fill="#FFFFFF" d="M257.749,0.031c0,85.323,0,170.646,0,255.968
		c-85.322,0-170.645,0-255.968,0c0-41.188,0-83.574,0-125.984c0-42.278-4.006-85.921,0-125.984c0.125-1.25-1.545-4.373,2-4
		C88.437,0.031,173.093,0.031,257.749,0.031z M2.781,4.03c0,83.657,0,167.312,0,250.968c84.656,0,169.312,0,253.968,0
		c0-84.655,0-169.312,0-253.968c-84.322,0-168.646,0-252.968,0C2.616,1.199,2.695,2.611,2.781,4.03z"/>
	<path fill-rule="evenodd" clip-rule="evenodd" fill="#FFFFFF" d="M39.776,76.021c0,24.997,0,49.994,0,74.991
		c58.993,0,117.984,0,176.978,0c2.998-19.667-0.997-46.325,2-65.992c2.333,0,4.666,0,6.999,0c4.611,27.484,0.708,63.652,2,94.988
		c-6.332,0-12.665,0-18.997,0c0-6.666,0-13.332,0-19.997c-52.661,0-105.32,0-157.981,0c-2.318,4.681-0.344,13.653-1,19.997
		c-6.333,0-12.665,0-18.998,0c0.666-34.329-1.333-71.324,1-103.987C34.443,76.021,37.11,76.021,39.776,76.021z"/>
	<path fill-rule="evenodd" clip-rule="evenodd" fill="#FFFFFF" d="M49.775,95.019c9.332,0,18.664,0,27.997,0c0,3,0,5.999,0,8.999
		c-9.333,0-18.665,0-27.997,0C49.775,101.018,49.775,98.019,49.775,95.019z"/>
	<path fill-rule="evenodd" clip-rule="evenodd" fill="#FFFFFF" d="M208.755,95.019c0,15.665,0,31.329,0,46.994
		c-52.994,0-105.987,0-158.98,0c0-9.332,0-18.665,0-27.997c11.999,0,23.997,0,35.995,0c2.974-4.026-0.974-14.972,2-18.998
		C128.099,95.019,168.426,95.019,208.755,95.019z"/>
</g>
</svg>
