<?xml version="1.0" encoding="utf-8"?>
<!-- Generator: Adobe Illustrator 13.0.0, SVG Export Plug-In . SVG Version: 6.00 Build 14948)  -->
<!DOCTYPE svg PUBLIC "-//W3C//DTD SVG 1.1//EN" "http://www.w3.org/Graphics/SVG/1.1/DTD/svg11.dtd">
<svg version="1.1" id="Layer_1" xmlns="http://www.w3.org/2000/svg" xmlns:xlink="http://www.w3.org/1999/xlink" x="0px" y="0px"
	 width="257.749px" height="255.999px" viewBox="0 0 257.749 255.999" enable-background="new 0 0 257.749 255.999"
	 xml:space="preserve">
<g>
	<path fill-rule="evenodd" clip-rule="evenodd" fill="#FFFFFF" d="M257.749,0.031c0,85.323,0,170.646,0,255.968
		c-85.322,0-170.645,0-255.968,0c0-41.188,0-83.574,0-125.984c0-42.278-4.006-85.921,0-125.984c0.125-1.25-1.545-4.373,2-4
		C88.437,0.031,173.093,0.031,257.749,0.031z M2.781,4.03c0,83.657,0,167.312,0,250.968c84.656,0,169.312,0,253.968,0
		c0-84.655,0-169.312,0-253.968c-84.322,0-168.646,0-252.968,0C2.616,1.199,2.695,2.611,2.781,4.03z"/>
	<path fill-rule="evenodd" clip-rule="evenodd" fill="#FFFFFF" d="M80.771,12.029c6.973,29.689,11.346,61.979,15.998,93.988
		c18.569-6.761,34.192-16.467,52.993-22.997c3.294,26.702,8.101,51.891,10.999,78.99c11.5-3.168,25.423-12.568,38.995-16.998
		c2.503,32.826,3.711,66.947,5.999,99.988c-7.772-22.892-14.244-47.082-20.997-70.991c-14.828,4.503-28.062,10.601-42.995,14.998
		c-3.316-26.013-8.203-50.457-10.999-76.991c-17.701,8.963-35.037,18.291-51.994,27.997c-9.353-36.642-15.77-76.219-23.997-113.986
		C63.653,21.575,72.71,17.301,80.771,12.029z"/>
</g>
</svg>
