<?xml version="1.0" encoding="utf-8"?>
<!-- Generator: Adobe Illustrator 13.0.0, SVG Export Plug-In . SVG Version: 6.00 Build 14948)  -->
<!DOCTYPE svg PUBLIC "-//W3C//DTD SVG 1.1//EN" "http://www.w3.org/Graphics/SVG/1.1/DTD/svg11.dtd">
<svg version="1.1" id="Layer_1" xmlns="http://www.w3.org/2000/svg" xmlns:xlink="http://www.w3.org/1999/xlink" x="0px" y="0px"
	 width="257.749px" height="255.999px" viewBox="0 0 257.749 255.999" enable-background="new 0 0 257.749 255.999"
	 xml:space="preserve">
<g>
	<path fill-rule="evenodd" clip-rule="evenodd" fill="#FFFFFF" d="M257.749,0.031c0,85.323,0,170.646,0,255.968
		c-85.322,0-170.645,0-255.968,0c0-41.188,0-83.574,0-125.984c0-42.278-4.006-85.921,0-125.984c0.125-1.25-1.545-4.373,2-4
		C88.437,0.031,173.093,0.031,257.749,0.031z M2.781,4.03c0,83.657,0,167.312,0,250.968c84.656,0,169.312,0,253.968,0
		c0-84.655,0-169.312,0-253.968c-84.322,0-168.646,0-252.968,0C2.616,1.199,2.695,2.611,2.781,4.03z"/>
	<path fill-rule="evenodd" clip-rule="evenodd" fill="#FFFFFF" d="M132.764,56.024c8.221-12.777,23.206-18.79,34.996-27.997
		c44.879-3.551,68.482,14.174,68.991,54.993c-6.238,3.055-6.058,3.867-12.998,1c-6.313,4.844-8.471,3.316-16.998,4
		c10.237,47.478,1.855,109.174-32.996,134.983c-6.447,4.774-15.799,8.78-21.997,7.999c-5.849-0.736-11.466-6.403-17.998-6.999
		c-3.894-0.354-10.181-0.474-14.998,0c-15.354,1.51-29.362,10.195-37.995-4.999C73.162,229.392,66.72,240.949,46.775,239
		c-5.865-3.653-4.31-15.663-1-20.997c-6.286,4.073-15.479,4.818-23.997,2c-9.89-24.012,15.845-35.344,32.996-41.995
		C41.562,140.86,41.904,61.397,82.771,59.023c16.252-0.944,26.904,10.275,38.995,15.998c11.657-14.992-0.976-37.363-7.999-48.994
		C126.384,12.338,133.205,40.758,132.764,56.024z M67.772,83.021c-13.568,21.428-13.074,63.948-3,87.989
		c3.871-8.357,11.311-11.86,16.998-17.998c17.233-18.599,26.963-46.273,37.995-68.991C100.073,73.192,79.728,64.14,67.772,83.021z
		 M183.758,109.017c-0.581,3.914,0.86,5.806,1.999,7.999c-4.729-0.729-6.572,1.426-8.998,3c1.236,9.539-5.774,13.914-5,21.998
		c-8.713,5.58-18.372,8.664-27.996,12.998c-25.539,11.5-48.245,26.736-60.993,50.994c7.285,4.369,11.963,12.207,20.998,12.998
		c6.952,0.608,13.173-4.806,20.997-4.999c10.969-0.271,18.171,7.206,28.997,6.999c40.72-14.49,54.448-73.869,43.994-123.985
		c-1.278-0.055-1.385-1.282-3-1C192.915,102.176,187.704,104.963,183.758,109.017z"/>
</g>
</svg>
