<?xml version="1.0" encoding="utf-8"?>
<!-- Generator: Adobe Illustrator 13.0.0, SVG Export Plug-In . SVG Version: 6.00 Build 14948)  -->
<!DOCTYPE svg PUBLIC "-//W3C//DTD SVG 1.1//EN" "http://www.w3.org/Graphics/SVG/1.1/DTD/svg11.dtd">
<svg version="1.1" id="Layer_1" xmlns="http://www.w3.org/2000/svg" xmlns:xlink="http://www.w3.org/1999/xlink" x="0px" y="0px"
	 width="257.749px" height="255.999px" viewBox="0 0 257.749 255.999" enable-background="new 0 0 257.749 255.999"
	 xml:space="preserve">
<g>
	<path fill-rule="evenodd" clip-rule="evenodd" fill="#FFFFFF" d="M257.749,0.031c0,85.323,0,170.646,0,255.968
		c-85.322,0-170.645,0-255.968,0c0-41.188,0-83.574,0-125.984c0-42.278-4.006-85.921,0-125.984c0.125-1.25-1.545-4.373,2-4
		C88.437,0.031,173.093,0.031,257.749,0.031z M2.781,4.03c0,83.657,0,167.312,0,250.968c84.656,0,169.312,0,253.968,0
		c0-84.655,0-169.312,0-253.968c-84.322,0-168.646,0-252.968,0C2.616,1.199,2.695,2.611,2.781,4.03z"/>
	<path fill-rule="evenodd" clip-rule="evenodd" fill="#FFFFFF" d="M129.765,7.03c41.342-0.416,76.117,19.485,96.988,45.994
		c12.704,16.135,26.412,49.326,25.997,76.99c-1.537,102.324-118.084,150.861-191.976,99.988
		C22.731,203.811-7.523,142.862,16.779,82.021C32.5,42.664,72.583,7.605,129.765,7.03z M100.769,40.026
		c-0.666,19.999,1.331,42.66-1,60.992c-19.331,0-38.662,0-57.993,0c-6.808,14.16-6.352,40.653,0,54.993c19.664,0,39.328,0,58.993,0
		c0,19.997,0,39.995,0,59.992c17.771,5.984,40.038,5.547,57.993,0c0.665-19.665-1.331-41.992,1-59.992c19.331,0,38.662,0,57.992,0
		c4.643-18.632,5.268-36.638,0-54.993c-19.332-0.665-41.326,1.332-58.992-1c0-19.664,0-39.328,0-58.992
		C141.983,33.886,118.786,34.406,100.769,40.026z"/>
</g>
</svg>
