<?xml version="1.0" encoding="utf-8"?>
<!-- Generator: Adobe Illustrator 13.0.0, SVG Export Plug-In . SVG Version: 6.00 Build 14948)  -->
<!DOCTYPE svg PUBLIC "-//W3C//DTD SVG 1.1//EN" "http://www.w3.org/Graphics/SVG/1.1/DTD/svg11.dtd">
<svg version="1.1" id="Layer_1" xmlns="http://www.w3.org/2000/svg" xmlns:xlink="http://www.w3.org/1999/xlink" x="0px" y="0px"
	 width="257.749px" height="255.999px" viewBox="0 0 257.749 255.999" enable-background="new 0 0 257.749 255.999"
	 xml:space="preserve">
<g>
	<path fill-rule="evenodd" clip-rule="evenodd" fill="#FFFFFF" d="M257.749,0.031c0,85.323,0,170.646,0,255.968
		c-85.322,0-170.645,0-255.968,0c0-41.188,0-83.574,0-125.984c0-42.278-4.006-85.921,0-125.984c0.125-1.25-1.545-4.373,2-4
		C88.437,0.031,173.093,0.031,257.749,0.031z M2.781,4.03c0,83.657,0,167.312,0,250.968c84.656,0,169.312,0,253.968,0
		c0-84.655,0-169.312,0-253.968c-84.322,0-168.646,0-252.968,0C2.616,1.199,2.695,2.611,2.781,4.03z"/>
	<path fill-rule="evenodd" clip-rule="evenodd" fill="#FFFFFF" d="M48.775,84.02c39.992-3.999,94.204-1,138.982-1
		c15.614,0,29.848-0.675,40.995,4c40.94,17.168,29.843,72.442-1,83.989c-24.183,9.053-70.607,3-100.987,3
		c-46.532,0-103.007,7.706-117.985-23.997C-8.311,113.837,19.418,86.956,48.775,84.02z M128.765,157.011
		c-2.595-1.072-6.697-0.636-7.999-3c0-5.666,0-11.332,0-16.998c-6,0-11.999,0-17.998,0c-1.742-5.566-2.581-11.737,0-16.998
		c6,0,11.999,0,17.998,0c0-6.333,0-12.665,0-18.998c3.868,0.535,4.881-1.785,8.999-1c0-3,0-5.999,0-8.999
		c-49.704,0.085-46.828,76.99,0,74.991c0-3,0-5.999,0-8.999c2.828-0.839,6.171-1.161,8.999-2c0.653-5.68-1.314-13.979,1-17.998
		c5.333,0,10.666,0,15.998,0c1.857-5.602,2.091-11.629,0-16.998c-5.666,0-11.332,0-16.998,0c0-5.999,0-11.999,0-17.998
		c-2.675-0.991-5.271-2.06-8.999-2C129.1,118.684,131.096,140.011,128.765,157.011z M214.754,166.01
		c37.268-6.823,42.957-61.975,4.999-72.991c-27.223-7.9-57.956,0.893-85.989-1c43.96,0.803,41.143,73.512-1,73.991
		C161.42,162.335,187.989,170.91,214.754,166.01z"/>
</g>
</svg>
