<?xml version="1.0" encoding="utf-8"?>
<!-- Generator: Adobe Illustrator 13.0.0, SVG Export Plug-In . SVG Version: 6.00 Build 14948)  -->
<!DOCTYPE svg PUBLIC "-//W3C//DTD SVG 1.1//EN" "http://www.w3.org/Graphics/SVG/1.1/DTD/svg11.dtd">
<svg version="1.1" id="Layer_1" xmlns="http://www.w3.org/2000/svg" xmlns:xlink="http://www.w3.org/1999/xlink" x="0px" y="0px"
	 width="257.749px" height="255.999px" viewBox="0 0 257.749 255.999" enable-background="new 0 0 257.749 255.999"
	 xml:space="preserve">
<g>
	<path fill-rule="evenodd" clip-rule="evenodd" fill="#FFFFFF" d="M257.749,0.031c0,85.323,0,170.646,0,255.968
		c-85.322,0-170.645,0-255.968,0c0-41.188,0-83.574,0-125.984c0-42.278-4.006-85.921,0-125.984c0.125-1.25-1.545-4.373,2-4
		C88.437,0.031,173.093,0.031,257.749,0.031z M2.781,4.03c0,83.657,0,167.312,0,250.968c84.656,0,169.312,0,253.968,0
		c0-84.655,0-169.312,0-253.968c-84.322,0-168.646,0-252.968,0C2.616,1.199,2.695,2.611,2.781,4.03z"/>
	<path fill-rule="evenodd" clip-rule="evenodd" fill="#FFFFFF" d="M71.772,6.03c29.366-4.011,31.114,45.473,2,45.995
		C46.001,52.521,44.885,9.703,71.772,6.03z"/>
	<path fill-rule="evenodd" clip-rule="evenodd" fill="#FFFFFF" d="M194.756,6.03c11.459-2.275,25.746,8.756,25.997,21.998
		c0.54,28.467-43.855,30.689-44.994,2C175.244,17.047,183.889,8.188,194.756,6.03z"/>
	<path fill-rule="evenodd" clip-rule="evenodd" fill="#FFFFFF" d="M97.769,96.019c1.754,23.578,12.546,46.779,16.998,70.992
		c-6.999,0-13.998,0-20.998,0c-1.819,13.077-1,29.569-1,46.994c0,14.649,2.724,40.596-12.999,34.995
		c-17.293-6.159-0.76-61.111-7.999-80.99C62.24,186.98,84.599,263.022,51.774,247c-4.351-22.979-0.895-53.765-2-79.989
		c-7.333,0-14.665,0-21.998,0c6.17-24.16,14.14-46.52,20.998-69.992c-6.697,5.107-7.295,15.987-10.999,25.997
		c-2.011,5.435-7.096,21.885-14.998,20.998c-13.414-1.506,3.252-36.593,4.999-41.995c3.622-11.202,7.14-36.308,15.998-42.995
		c7.533-5.686,47.4-6.763,55.993-2c9.841,5.455,13.659,29.886,17.998,42.995c1.625,4.911,16.485,43.249,2,43.995
		c-8.596,0.442-11.313-16.697-12.999-21.998C104.02,113.375,101.147,105.738,97.769,96.019z"/>
	<path fill-rule="evenodd" clip-rule="evenodd" fill="#FFFFFF" d="M235.751,57.023c9.181,6.729,5.999,29.094,5.999,49.994
		c0,15.461,1.907,31.997-6.999,35.996c-14.445-4.553-4.671-33.324-8.999-47.994c-3.609,35.668-1.999,80.35-1.999,122.984
		c0,13.035,0.766,29.852-9.999,30.996c-23.446,2.492-9.029-61.723-12.998-80.99c-8.319,19.678,2.359,58.353-6,77.99
		c-4.66,3.503-14.172,2.119-17.997-0.999c-5.221-45.773,0.562-102.549-3-149.981c-7.37,11.098,5.763,47.906-8.999,48.994
		c-10.396,0.766-8.999-21.356-8.999-35.996c0-22.282-3.991-48.701,10.999-52.993c13.117-3.756,25.25,0,35.995,0
		C213.826,55.024,223.715,53.838,235.751,57.023z"/>
</g>
</svg>
