<?xml version="1.0" encoding="utf-8"?>
<!-- Generator: Adobe Illustrator 13.0.0, SVG Export Plug-In . SVG Version: 6.00 Build 14948)  -->
<!DOCTYPE svg PUBLIC "-//W3C//DTD SVG 1.1//EN" "http://www.w3.org/Graphics/SVG/1.1/DTD/svg11.dtd">
<svg version="1.1" id="Layer_1" xmlns="http://www.w3.org/2000/svg" xmlns:xlink="http://www.w3.org/1999/xlink" x="0px" y="0px"
	 width="257.749px" height="255.999px" viewBox="0 0 257.749 255.999" enable-background="new 0 0 257.749 255.999"
	 xml:space="preserve">
<g>
	<path fill-rule="evenodd" clip-rule="evenodd" fill="#FFFFFF" d="M257.749,0.031c0,85.323,0,170.646,0,255.968
		c-85.322,0-170.645,0-255.968,0c0-41.188,0-83.574,0-125.984c0-42.278-4.006-85.921,0-125.984c0.125-1.25-1.545-4.373,2-4
		C88.437,0.031,173.093,0.031,257.749,0.031z M2.781,4.03c0,83.657,0,167.312,0,250.968c84.656,0,169.312,0,253.968,0
		c0-84.655,0-169.312,0-253.968c-84.322,0-168.646,0-252.968,0C2.616,1.199,2.695,2.611,2.781,4.03z"/>
	<path fill-rule="evenodd" clip-rule="evenodd" fill="#FFFFFF" d="M88.77,90.02c5.442-1.091,14.261,3.057,21.997,3
		c-6.15-23.513-14.266-45.061-20.998-67.991c18.452,19.21,35.709,39.615,53.994,58.992c4.42-4.579,7.582-10.415,10.998-15.998
		c3.907,4.758,1.337,15.995,4,21.997c12.307-11.692,26.267-30.392,37.995-45.994c-5.682,22.983-17.71,48.281-25.997,71.991
		c14.148,1.146,30.961-3.699,46.994-4c-11.789,6.875-25.685,11.644-37.995,17.998c10.865,8.466,22.216,16.446,33.996,23.997
		c-11.017,0.345-26.945-3.046-38.995-4.999c15.479,25.183,37.297,52.691,55.993,77.99c-22.866-13.13-46.881-33.775-70.991-48.994
		c-2.325,7.008-0.34,18.325-1,26.997c-6.08-5.919-10.855-13.142-15.998-19.998c-10.309,13.688-20.612,27.383-29.996,41.995
		c-1.732-14.266-1.085-30.911-2-45.994c-23.825,4.173-52.356,12.302-77.99,17.998c20.258-18.737,43.468-34.522,63.992-52.994
		c-9.835,0.498-19.038,1.626-28.997,2c8.08-5.252,16.27-10.394,24.997-14.998c-21.552-14.11-44.883-26.442-67.992-38.995
		c26.225,4.105,56.345,12.979,83.99,18.998C103.013,104.44,95.532,97.589,88.77,90.02z"/>
</g>
</svg>
