<?xml version="1.0" encoding="utf-8"?>
<!-- Generator: Adobe Illustrator 13.0.0, SVG Export Plug-In . SVG Version: 6.00 Build 14948)  -->
<!DOCTYPE svg PUBLIC "-//W3C//DTD SVG 1.1//EN" "http://www.w3.org/Graphics/SVG/1.1/DTD/svg11.dtd">
<svg version="1.1" id="Layer_1" xmlns="http://www.w3.org/2000/svg" xmlns:xlink="http://www.w3.org/1999/xlink" x="0px" y="0px"
	 width="257.749px" height="255.999px" viewBox="0 0 257.749 255.999" enable-background="new 0 0 257.749 255.999"
	 xml:space="preserve">
<g>
	<path fill-rule="evenodd" clip-rule="evenodd" fill="#FFFFFF" d="M257.749,0.031c0,85.323,0,170.646,0,255.968
		c-85.322,0-170.645,0-255.968,0c0-41.188,0-83.574,0-125.984c0-42.278-4.006-85.921,0-125.984c0.125-1.25-1.545-4.373,2-4
		C88.437,0.031,173.093,0.031,257.749,0.031z M2.781,4.03c0,83.657,0,167.312,0,250.968c84.656,0,169.312,0,253.968,0
		c0-84.655,0-169.312,0-253.968c-84.322,0-168.646,0-252.968,0C2.616,1.199,2.695,2.611,2.781,4.03z"/>
	<path fill-rule="evenodd" clip-rule="evenodd" fill="#FFFFFF" d="M187.757,29.027c-13.095,24.233-26.184,48.473-38.995,72.991
		c-12.381-6.272-26.952-6.632-38.995,0C97.213,76.577,81.399,54.396,68.772,29.027C97.213,6.069,159.1,6.902,187.757,29.027z"/>
	<path fill-rule="evenodd" clip-rule="evenodd" fill="#FFFFFF" d="M126.765,118.016c7.366-1.027,14.168,0.685,17.998,4.999
		c15.128,17.042-10.413,48.191-29.997,28.997C103.456,140.925,110.185,120.328,126.765,118.016z"/>
	<path fill-rule="evenodd" clip-rule="evenodd" fill="#FFFFFF" d="M90.77,138.013c-0.146,17.479,6.552,28.11,17.998,33.996
		C93.576,195.813,78.472,219.705,63.773,244C30.911,222.869,5.236,194.551,7.78,138.013
		C35.443,138.013,63.106,138.013,90.77,138.013z"/>
	<path fill-rule="evenodd" clip-rule="evenodd" fill="#FFFFFF" d="M251.75,138.013c1.606,54.934-22.313,84.34-54.993,104.987
		c-17.481-21.18-29.917-47.406-45.994-69.991c10.111-7.553,17.659-17.67,17.998-34.996
		C196.423,138.013,224.086,138.013,251.75,138.013z"/>
</g>
</svg>
