<?xml version="1.0" encoding="utf-8"?>
<!-- Generator: Adobe Illustrator 13.0.0, SVG Export Plug-In . SVG Version: 6.00 Build 14948)  -->
<!DOCTYPE svg PUBLIC "-//W3C//DTD SVG 1.1//EN" "http://www.w3.org/Graphics/SVG/1.1/DTD/svg11.dtd">
<svg version="1.1" id="Layer_1" xmlns="http://www.w3.org/2000/svg" xmlns:xlink="http://www.w3.org/1999/xlink" x="0px" y="0px"
	 width="257.749px" height="255.999px" viewBox="0 0 257.749 255.999" enable-background="new 0 0 257.749 255.999"
	 xml:space="preserve">
<g>
	<path fill-rule="evenodd" clip-rule="evenodd" fill="#FFFFFF" d="M257.749,0.031c0,85.323,0,170.646,0,255.968
		c-85.322,0-170.645,0-255.968,0c0-41.188,0-83.574,0-125.984c0-42.278-4.006-85.921,0-125.984c0.125-1.25-1.545-4.373,2-4
		C88.437,0.031,173.093,0.031,257.749,0.031z M2.781,4.03c0,83.657,0,167.312,0,250.968c84.656,0,169.312,0,253.968,0
		c0-84.655,0-169.312,0-253.968c-84.322,0-168.646,0-252.968,0C2.616,1.199,2.695,2.611,2.781,4.03z"/>
	<path fill-rule="evenodd" clip-rule="evenodd" fill="#FFFFFF" d="M48.775,84.02c39.992-3.999,94.204-1,138.982-1
		c15.614,0,29.848-0.675,40.995,4c40.94,17.168,29.843,72.442-1,83.989c-24.183,9.053-70.607,3-100.987,3
		c-46.532,0-103.007,7.706-117.985-23.997C-8.311,113.837,19.418,86.956,48.775,84.02z M136.764,132.014
		c-1.145,3.188-2.742,5.924-7,5.999c0-3.999,0-7.999,0-11.998c-4.341-0.342-5.246,2.753-5.999,5.999
		c8.213,5.118,5.817,20.846,5.999,33.996c7,0,13.999,0,20.998,0c-3.188-8.812-9.881-14.116-12.998-22.997
		c3.613-2.053,3.46-7.872,5.999-10.999c8.339,0.66,19.321-1.324,25.996,1c-0.101,16.896-7.806,26.189-17.997,32.996
		c21.867-2.11,44.396,2.881,61.992,0c40.285-6.597,41.787-62.605,5.999-72.991c-23.045-6.688-57.489,0.902-85.989-2
		c-1.052,0.055-0.787,1.281,1,1c1.333,0,2.666,0,3.999,0c3.152,2.182,7.946,2.72,9.999,6c-5.588,6.411-6.965,17.032-13.998,21.997
		c-2.409,0.41-2.174-1.826-5-1c0-9.333,0-18.665,0-27.997c-7.873,0.126-12.6,3.397-18.998,4.999
		c3.26,9.073,9.059,15.605,12.999,23.997c3.058,0.725,2.941-1.725,5.999-1C127.609,127.837,136.855,125.257,136.764,132.014z
		 M109.767,166.01c3.252-8.746,9.61-14.387,12.999-22.997c-2.497-2.837-5.002-5.663-5-10.999c-8.999,0-17.998,0-26.997,0
		C90.685,149.764,98.173,159.94,109.767,166.01z"/>
</g>
</svg>
