<?xml version="1.0" encoding="utf-8"?>
<!-- Generator: Adobe Illustrator 13.0.0, SVG Export Plug-In . SVG Version: 6.00 Build 14948)  -->
<!DOCTYPE svg PUBLIC "-//W3C//DTD SVG 1.1//EN" "http://www.w3.org/Graphics/SVG/1.1/DTD/svg11.dtd">
<svg version="1.1" id="Layer_1" xmlns="http://www.w3.org/2000/svg" xmlns:xlink="http://www.w3.org/1999/xlink" x="0px" y="0px"
	 width="257.749px" height="255.999px" viewBox="0 0 257.749 255.999" enable-background="new 0 0 257.749 255.999"
	 xml:space="preserve">
<g>
	<path fill-rule="evenodd" clip-rule="evenodd" fill="#FFFFFF" d="M257.749,0.031c0,85.323,0,170.646,0,255.968
		c-85.322,0-170.645,0-255.968,0c0-41.188,0-83.574,0-125.984c0-42.278-4.006-85.921,0-125.984c0.125-1.25-1.545-4.373,2-4
		C88.437,0.031,173.093,0.031,257.749,0.031z M2.781,4.03c0,83.657,0,167.312,0,250.968c84.656,0,169.312,0,253.968,0
		c0-84.655,0-169.312,0-253.968c-84.322,0-168.646,0-252.968,0C2.616,1.199,2.695,2.611,2.781,4.03z"/>
	<path fill-rule="evenodd" clip-rule="evenodd" fill="#FFFFFF" d="M188.757,19.028c1.535,6.131,5.465,9.867,6.999,15.998
		c8.7-1.299,17.402-2.596,24.997-5c4.965,2.035,4.751,9.248,8.999,11.999c-19.422,6.307-4.903,42.259-19.998,53.993
		c2.024,73.358-27.098,124.21-78.99,146.982c-51.564-21.18-78.071-65.907-81.99-128.984c-0.367-5.91,1.776-12.878,1-18.998
		c-0.731-5.764-6.175-14.149-6.999-22.997c-1.381-14.821,2.438-25.565-10.999-28.997c2.766-4.233,4.615-9.383,7.999-12.999
		c7.813-0.072,15.209,6.19,21.998,4c6.121-1.975,5.552-9.404,8.999-14.998c15.383,6.883,42.995,8.353,57.993,0
		C145.012,26.608,172.477,26.44,188.757,19.028z M131.764,126.015c20.998,0,41.995,0,62.992,0
		c-2.704-17.701,6.6-31.328,7.999-44.995c0.515-5.02-1.247-11.505,0-15.998c1.19-4.289,5.729-6.532,7.999-9.999
		c-1.246-4.086-2.649-8.016-4.999-10.999c-8.35-0.017-12.021,4.644-20.997,4c-3.815-2.851-5.354-7.978-7-12.999
		c-14.94,4.558-33.165,7.925-45.994,0C131.764,65.356,131.764,95.686,131.764,126.015z M127.765,227.002c0-32.329,0-64.658,0-96.988
		c-21.331,0-42.662,0-63.992,0C71.925,174.142,87.829,210.386,127.765,227.002z"/>
</g>
</svg>
