<?xml version="1.0" encoding="utf-8"?>
<!-- Generator: Adobe Illustrator 13.0.0, SVG Export Plug-In . SVG Version: 6.00 Build 14948)  -->
<!DOCTYPE svg PUBLIC "-//W3C//DTD SVG 1.1//EN" "http://www.w3.org/Graphics/SVG/1.1/DTD/svg11.dtd">
<svg version="1.1" id="Layer_1" xmlns="http://www.w3.org/2000/svg" xmlns:xlink="http://www.w3.org/1999/xlink" x="0px" y="0px"
	 width="257.749px" height="255.999px" viewBox="0 0 257.749 255.999" enable-background="new 0 0 257.749 255.999"
	 xml:space="preserve">
<g>
	<path fill-rule="evenodd" clip-rule="evenodd" fill="#FFFFFF" d="M257.749,0.031c0,85.323,0,170.646,0,255.968
		c-85.322,0-170.645,0-255.968,0c0-41.188,0-83.574,0-125.984c0-42.278-4.006-85.921,0-125.984c0.125-1.25-1.545-4.373,2-4
		C88.437,0.031,173.093,0.031,257.749,0.031z M2.781,4.03c0,83.657,0,167.312,0,250.968c84.656,0,169.312,0,253.968,0
		c0-84.655,0-169.312,0-253.968c-84.322,0-168.646,0-252.968,0C2.616,1.199,2.695,2.611,2.781,4.03z"/>
	<path fill-rule="evenodd" clip-rule="evenodd" fill="#FFFFFF" d="M118.766,24.028c42.375-4.289,80.988,19.891,97.987,45.994
		c7.926,12.17,16.949,35.361,16.998,57.993c0.189,86.711-96.603,132.866-163.979,88.989c-26.917-17.528-48.438-51.96-46.994-91.988
		C24.819,68.409,65.99,29.37,118.766,24.028z M82.771,123.015c23.545-0.543,22.632-39.566-3-35.995
		C56.949,90.2,60.281,123.535,82.771,123.015z M172.759,123.015c23.546-0.543,22.632-39.566-3-35.995
		C146.937,90.2,150.27,123.535,172.759,123.015z M199.756,149.012c-13.456,57.166-131.05,55.442-144.982,0
		C54.343,222.884,202.989,220.941,199.756,149.012z"/>
</g>
</svg>
