<?xml version="1.0" encoding="utf-8"?>
<!-- Generator: Adobe Illustrator 13.0.0, SVG Export Plug-In . SVG Version: 6.00 Build 14948)  -->
<!DOCTYPE svg PUBLIC "-//W3C//DTD SVG 1.1//EN" "http://www.w3.org/Graphics/SVG/1.1/DTD/svg11.dtd">
<svg version="1.1" id="Layer_1" xmlns="http://www.w3.org/2000/svg" xmlns:xlink="http://www.w3.org/1999/xlink" x="0px" y="0px"
	 width="253.196px" height="254.968px" viewBox="0 0 253.196 254.968" enable-background="new 0 0 253.196 254.968"
	 xml:space="preserve">
<g>
	<path fill-rule="evenodd" clip-rule="evenodd" fill="#FFFFFF" d="M126.984,0c0.333,0,0.667,0,1,0
		c12.894,27.435,28.007,52.649,40.995,79.99c27.816,5.846,56.168,11.157,83.99,16.998c1.253,3.281-2.992,5.682-5,7.999
		c-12.251,14.142-23.997,26.623-37.995,41.995c-5.087,5.586-13.002,13.604-13.998,17.998c-2.503,11.039,3.599,33.422,4.999,44.994
		c1.833,15.146,3.61,29.646,5,44.994c-25.598-13.397-52.638-25.353-77.991-38.995c-25.886,13.109-52.958,25.032-77.99,38.995
		c-0.336-21.706,4.31-43.22,6.999-65.991c0.892-7.55,3.12-17.1,2-22.997c-1.701-8.96-22.655-28.098-28.997-34.996
		C19.065,119.091,10.131,108.07,0,97.988c0-0.333,0-0.667,0-1c28.747-5.249,57.077-10.915,84.989-16.998
		C99.523,53.863,113.618,27.295,126.984,0z"/>
</g>
</svg>
