<?xml version="1.0" encoding="utf-8"?>
<!-- Generator: Adobe Illustrator 13.0.0, SVG Export Plug-In . SVG Version: 6.00 Build 14948)  -->
<!DOCTYPE svg PUBLIC "-//W3C//DTD SVG 1.1//EN" "http://www.w3.org/Graphics/SVG/1.1/DTD/svg11.dtd">
<svg version="1.1" id="Layer_1" xmlns="http://www.w3.org/2000/svg" xmlns:xlink="http://www.w3.org/1999/xlink" x="0px" y="0px"
	 width="257.749px" height="255.999px" viewBox="0 0 257.749 255.999" enable-background="new 0 0 257.749 255.999"
	 xml:space="preserve">
<g>
	<path fill-rule="evenodd" clip-rule="evenodd" fill="#FFFFFF" d="M257.749,0.031c0,85.323,0,170.646,0,255.968
		c-85.322,0-170.645,0-255.968,0c0-41.188,0-83.574,0-125.984c0-42.278-4.006-85.921,0-125.984c0.125-1.25-1.545-4.373,2-4
		C88.437,0.031,173.093,0.031,257.749,0.031z M2.781,4.03c0,83.657,0,167.312,0,250.968c84.656,0,169.312,0,253.968,0
		c0-84.655,0-169.312,0-253.968c-84.322,0-168.646,0-252.968,0C2.616,1.199,2.695,2.611,2.781,4.03z"/>
	<path fill-rule="evenodd" clip-rule="evenodd" fill="#FFFFFF" d="M93.769,68.022c-3.751,2.914-7.084,6.247-9.999,9.999
		c5.078,6.587,11.92,11.411,16.998,17.998c15.746-12.583,28.915-27.745,42.995-41.995c-1.436-5.23-6.739-6.593-8.999-10.999
		c1.293-4.373,5.046-6.287,7.999-8.999c5.23,1.435,6.593,6.739,10.999,8.999c8.073-10.273,13.588-3.214,19.997,5
		c-9.687,9.095-4.485,9.715,3,19.998c-3.524-0.292-5.171,6.406-7.999,6.999c-4.659,0.976-6.006-8.785-10.999-8.999
		c-2.668-0.114-19.605,18.606-21.997,20.998c-8.067,8.066-13.563,14.176-20.998,21.997c0.903,1.763,2.237,3.096,4,4
		c7.74-4.592,12.923-11.741,18.998-17.998c9.912,6.085,15.916,16.08,24.996,22.997c-3.975,5.188-3.975,6.81,0,11.998
		c-3.763,0.569-4.036,4.629-6.999,6c23.914,27.079,50.41,51.577,75.991,76.99c-0.657,3.676-3.687,4.979-6,6.999
		c5.321,9.159,19.587,14.206,19.998,24.997c-9.007-1.407-15.638-13.633-22.997-19.998c-3.314,0.352-4.338,2.995-6,5
		c-26.08-25.247-51.743-50.911-76.99-76.991c-3.723,1.609-5.877,4.789-7.999,7.999c-4.8-2.708-6.059-5.065-10.998-0.999
		c-6.918-9.081-16.912-15.085-22.998-24.997c6.13-5.202,11.686-10.979,16.998-16.998c-0.294-2.039-2.706-1.961-3-4
		c-17.237,11.093-28.421,28.239-43.995,40.995c1.945,5.055,6.392,7.607,9.999,10.999c-2.427,3.239-6.582,4.75-7.999,8.999
		c-6.137-0.903-8.023-9.842-10.999-9.999c-7.644-0.404-4.59,12.03-14.998,2c0.073,0.069-5.971-5.22-5.999-6
		c-0.097-2.707,6.87-2.726,6.999-7.999c0.089-3.627-6.213-6.097-8.999-10.998c1.758-4.242,4.757-7.241,8.999-8.999
		c2.914,3.752,6.247,7.085,9.999,9.999c14.415-13.582,28.414-27.58,41.995-41.995c-4.26-7.405-11.073-12.257-16.998-17.998
		c-6.2,0.202-7.267,9.839-10.999,9.999c-5.04,0.216-7.691-8.874-10.999-9.999c-4.486-1.526-7.606,0.865-12.999,0
		C17,78.565,4.434,43.682,23.778,23.028C41.218,4.407,83.456,9.564,85.77,45.025C86.607,57.852,84.578,59.257,93.769,68.022z"/>
</g>
</svg>
