<?xml version="1.0" encoding="utf-8"?>
<!-- Generator: Adobe Illustrator 13.0.0, SVG Export Plug-In . SVG Version: 6.00 Build 14948)  -->
<!DOCTYPE svg PUBLIC "-//W3C//DTD SVG 1.1//EN" "http://www.w3.org/Graphics/SVG/1.1/DTD/svg11.dtd">
<svg version="1.1" id="Layer_1" xmlns="http://www.w3.org/2000/svg" xmlns:xlink="http://www.w3.org/1999/xlink" x="0px" y="0px"
	 width="257.749px" height="255.999px" viewBox="0 0 257.749 255.999" enable-background="new 0 0 257.749 255.999"
	 xml:space="preserve">
<g>
	<path fill-rule="evenodd" clip-rule="evenodd" fill="#FFFFFF" d="M257.749,0.031c0,85.323,0,170.646,0,255.968
		c-85.322,0-170.645,0-255.968,0c0-41.188,0-83.574,0-125.984c0-42.278-4.006-85.921,0-125.984c0.125-1.25-1.545-4.373,2-4
		C88.437,0.031,173.093,0.031,257.749,0.031z M2.781,4.03c0,83.657,0,167.312,0,250.968c84.656,0,169.312,0,253.968,0
		c0-84.655,0-169.312,0-253.968c-84.322,0-168.646,0-252.968,0C2.616,1.199,2.695,2.611,2.781,4.03z"/>
	<path fill-rule="evenodd" clip-rule="evenodd" fill="#FFFFFF" d="M127.765,11.029c0.667,0,1.333,0,2,0
		c4.609,8.39,0.709,25.288,2,36.996c45.698,6.962,73.721,31.599,78.99,78.99c9.711,3.621,28.938-2.275,36.995,2.999
		c-8.06,4.605-24.618,0.712-35.995,2c-7.318,45.675-31.792,74.195-79.99,78.99c-0.663,12.002,1.329,26.659-1,36.995
		c-5.379-1.692-3-10.609-3-16.998c0-6.427,0-13.705,0-18.997c-45.699-7.294-74.71-31.277-78.99-79.99
		c-12.335-0.663-27.326,1.329-37.995-1c1.801-5.404,10.634-3,16.998-3c6.704,0,14.384,0,19.998,0
		c6.786-46.208,31.499-74.489,79.99-78.99C127.765,36.359,127.765,23.694,127.765,11.029z M168.76,128.015
		c12.665,0,25.33,0,37.995,0c-5.214-44.78-29.788-70.2-74.991-74.991c-1.29,11.708,2.609,28.605-2,36.996
		c-4.608-8.39-0.709-25.288-2-36.996c-45.16,4.834-70.221,29.767-74.991,74.991c12.332,0,24.664,0,36.995,0
		c4.209-20.788,14.878-35.116,37.996-36.995c0,12.332,0,24.664,0,36.995c-5.583,0-13.206,0-19.998,0c-6.813,0-15.817-2.438-17.998,3
		c10.67,2.329,25.661,0.337,37.996,1c-0.663,12.002,1.329,26.659-1,36.995c-21.994-2.67-32.987-16.34-36.996-36.995
		c-12.332,0-24.664,0-36.995,0c4.746,45.248,29.999,69.988,74.991,74.991c0-12.332,0-24.664,0-36.996
		c-0.319-2.651,5.602,0.936,3.999-2.999c0-11.666,0-23.331,0-34.996c11.708-1.29,28.605,2.608,36.996-2
		c-8.058-5.274-27.285,0.622-36.996-2.999c0.663-11.669-1.328-25.992,1-35.996C154.548,93.566,165.556,106.888,168.76,128.015z
		 M168.76,132.014c-2.505,22.159-14.719,34.609-36.996,36.995c0,12.665,0,25.33,0,37.996c44.848-5.146,69.738-30.25,74.991-74.991
		C194.09,132.014,181.425,132.014,168.76,132.014z"/>
</g>
</svg>
