<?xml version="1.0" encoding="utf-8"?>
<!-- Generator: Adobe Illustrator 13.0.0, SVG Export Plug-In . SVG Version: 6.00 Build 14948)  -->
<!DOCTYPE svg PUBLIC "-//W3C//DTD SVG 1.1//EN" "http://www.w3.org/Graphics/SVG/1.1/DTD/svg11.dtd">
<svg version="1.1" id="Layer_1" xmlns="http://www.w3.org/2000/svg" xmlns:xlink="http://www.w3.org/1999/xlink" x="0px" y="0px"
	 width="257.749px" height="255.999px" viewBox="0 0 257.749 255.999" enable-background="new 0 0 257.749 255.999"
	 xml:space="preserve">
<g>
	<path fill-rule="evenodd" clip-rule="evenodd" fill="#FFFFFF" d="M257.749,0.031c0,85.323,0,170.646,0,255.968
		c-85.322,0-170.645,0-255.968,0c0-41.188,0-83.574,0-125.984c0-42.278-4.006-85.921,0-125.984c0.125-1.25-1.545-4.373,2-4
		C88.437,0.031,173.093,0.031,257.749,0.031z M2.781,4.03c0,83.657,0,167.312,0,250.968c84.656,0,169.312,0,253.968,0
		c0-84.655,0-169.312,0-253.968c-84.322,0-168.646,0-252.968,0C2.616,1.199,2.695,2.611,2.781,4.03z"/>
	<path fill-rule="evenodd" clip-rule="evenodd" fill="#FFFFFF" d="M19.778,9.03c14.308-4.337,43.274-1,60.993-1
		c38.469,0,77.873,0,117.985,0c15.852,0,46.534-3.06,50.993,7.999c5.788,14.354-19.55,50.977-24.997,61.992
		c-19.648,39.735-37.849,76.178-59.992,117.985C157.777,209.191,144.029,249,129.765,249c-13.219,0-28.917-40.685-34.996-51.993
		c-27.982-52.059-45.655-91.737-72.991-144.982C16.97,42.659-1.383,15.444,19.778,9.03z M111.767,29.027
		c-3.583,40.913,2.532,80.79,5,118.985c8.332,0,16.665,0,24.997,0c2.997-38.665,7.291-76.032,5.999-118.985
		C135.764,29.027,123.766,29.027,111.767,29.027z M115.767,194.006c9.332,0,18.665,0,27.997,0c0-10.665,0-21.33,0-31.996
		c-9.332,0-18.665,0-27.997,0C115.767,172.676,115.767,183.341,115.767,194.006z"/>
</g>
</svg>
