<?xml version="1.0" encoding="utf-8"?>
<!-- Generator: Adobe Illustrator 13.0.0, SVG Export Plug-In . SVG Version: 6.00 Build 14948)  -->
<!DOCTYPE svg PUBLIC "-//W3C//DTD SVG 1.1//EN" "http://www.w3.org/Graphics/SVG/1.1/DTD/svg11.dtd">
<svg version="1.1" id="Layer_1" xmlns="http://www.w3.org/2000/svg" xmlns:xlink="http://www.w3.org/1999/xlink" x="0px" y="0px"
	 width="254.968px" height="254.968px" viewBox="0 0 254.968 254.968" enable-background="new 0 0 254.968 254.968"
	 xml:space="preserve">
<g>
	<path fill-rule="evenodd" clip-rule="evenodd" fill="#FFFFFF" d="M129.983,85.989c24.148,2.516,37.089,16.238,39.995,39.995
		c-13.331,0-26.663,0-39.995,0C129.983,112.653,129.983,99.321,129.983,85.989z"/>
	<path fill-rule="evenodd" clip-rule="evenodd" fill="#FFFFFF" d="M125.984,0c1.333,0,2.666,0,3.999,0c0,13.665,0,27.33,0,40.995
		c51.364,5.295,79.318,34,84.989,84.989c12.702,1.296,30.613-2.617,39.995,2c-9.382,4.617-27.293,0.704-39.995,2
		c-5.755,50.905-33.547,79.771-84.989,84.989c-1.296,12.702,2.617,30.613-2,39.995c-4.616-9.382-0.704-27.293-2-39.995
		c-51.286-5.374-79.763-33.556-84.989-84.989c-13.665,0-27.33,0-40.995,0c0-1.333,0-2.666,0-3.999c13.665,0,27.33,0,40.995,0
		c5.028-51.632,33.717-79.602,84.989-84.989C125.984,27.33,125.984,13.665,125.984,0z M127.984,85.989
		c-2.848,12.875-1.183,25.488-3,39.995c-12.999,0-25.997,0-38.995,0c-2.652-0.319,0.935,5.602-3,3.999c-12.665,0-25.33,0-37.996,0
		c5.101,48.893,32.626,75.361,80.99,80.99c0-13.665,0-27.33,0-40.995c-24.249-2.414-37.382-15.944-39.995-39.995
		c13.332,0,26.664,0,39.995,0c1.296,12.702-2.617,30.613,2,39.995c5.283-9.049-0.627-29.29,3-39.995c12.665,0,25.33,0,37.995,0
		c2.652,0.319-0.935-5.601,3-3.999c12.998,0,25.997,0,38.995,0c-5.679-48.314-32.447-75.539-80.99-80.99
		C130.083,60.163,130.726,73.596,127.984,85.989z M125.984,85.989c0-13.665,0-27.33,0-40.995
		c-48.773,5.22-75.872,32.115-80.99,80.99c13.332,0,26.664,0,39.995,0C89.262,103.26,101.074,88.076,125.984,85.989z
		 M169.979,129.983c-2.518,24.146-15.952,37.375-39.995,39.995c0,13.665,0,27.33,0,40.995c48.408-5.585,75.345-32.642,80.99-80.99
		C197.309,129.983,183.644,129.983,169.979,129.983z"/>
</g>
</svg>
