<?xml version="1.0" encoding="utf-8"?>
<!-- Generator: Adobe Illustrator 13.0.0, SVG Export Plug-In . SVG Version: 6.00 Build 14948)  -->
<!DOCTYPE svg PUBLIC "-//W3C//DTD SVG 1.1//EN" "http://www.w3.org/Graphics/SVG/1.1/DTD/svg11.dtd">
<svg version="1.1" id="Layer_1" xmlns="http://www.w3.org/2000/svg" xmlns:xlink="http://www.w3.org/1999/xlink" x="0px" y="0px"
	 width="254.968px" height="253.968px" viewBox="0 0 254.968 253.968" enable-background="new 0 0 254.968 253.968"
	 xml:space="preserve">
<g>
	<path fill-rule="evenodd" clip-rule="evenodd" fill="#FFFFFF" d="M43.995,0c0.667,0,1.333,0,2,0
		c8.298,34.364,17.215,68.107,25.997,101.987c29.979-7.683,57.708-17.616,87.989-24.997c7.29,28.039,12.838,57.819,19.997,85.989
		c22.327-5.669,42.605-13.387,64.992-18.997c3.797,36.197,6.473,73.517,9.998,109.985c-12.593-25.402-23.713-52.276-35.995-77.99
		c-24.789,4.541-47.17,11.49-71.991,15.998c-6.071-28.257-13.678-54.979-18.998-83.989c-29.309,10.686-59.347,20.644-88.989,30.996
		C26.209,98.108,13.776,56.881,0,16.998c0-0.667,0-1.333,0-2C14.79,10.124,30.04,5.709,43.995,0z"/>
</g>
</svg>
