<?xml version="1.0" encoding="utf-8"?>
<!-- Generator: Adobe Illustrator 13.0.0, SVG Export Plug-In . SVG Version: 6.00 Build 14948)  -->
<!DOCTYPE svg PUBLIC "-//W3C//DTD SVG 1.1//EN" "http://www.w3.org/Graphics/SVG/1.1/DTD/svg11.dtd">
<svg version="1.1" id="Layer_1" xmlns="http://www.w3.org/2000/svg" xmlns:xlink="http://www.w3.org/1999/xlink" x="0px" y="0px"
	 width="255.079px" height="254.968px" viewBox="0 0 255.079 254.968" enable-background="new 0 0 255.079 254.968"
	 xml:space="preserve">
<g>
	<path fill-rule="evenodd" clip-rule="evenodd" fill="#FFFFFF" d="M120.985,0c3,0,6,0,8.999,0
		c23.727,2.604,43.42,9.24,57.993,20.998c-15.132,25.197-26.6,54.057-41.995,78.99c-10.852-7.751-28.46-7.992-38.995,0
		c-13.915-27.414-29.246-53.411-43.995-79.99C78.984,9.993,97.142,2.153,120.985,0z"/>
	<path fill-rule="evenodd" clip-rule="evenodd" fill="#FFFFFF" d="M124.984,116.985c14.3-1.847,25.899,8.331,22.997,25.997
		c-1.166,7.098-8.034,14.34-12.998,15.998C108.982,167.663,91.521,121.307,124.984,116.985z"/>
	<path fill-rule="evenodd" clip-rule="evenodd" fill="#FFFFFF" d="M0,138.982c28.671,0.658,59.981-1.322,86.989,1
		c-1.202,19.865,9.045,28.283,17.998,37.995c-16.743,24.585-30.713,51.943-46.994,76.99C27.949,236.018,7.456,207.518,0,165.979
		C0,156.98,0,147.981,0,138.982z"/>
	<path fill-rule="evenodd" clip-rule="evenodd" fill="#FFFFFF" d="M254.968,138.982c2.029,60.022-23.849,92.137-57.992,115.985
		c-17.154-24.84-30.918-53.071-47.994-77.99c11.394-7.604,19.203-18.792,18.997-37.995
		C196.976,138.982,225.972,138.982,254.968,138.982z"/>
</g>
</svg>
