<?xml version="1.0" encoding="utf-8"?>
<!-- Generator: Adobe Illustrator 13.0.0, SVG Export Plug-In . SVG Version: 6.00 Build 14948)  -->
<!DOCTYPE svg PUBLIC "-//W3C//DTD SVG 1.1//EN" "http://www.w3.org/Graphics/SVG/1.1/DTD/svg11.dtd">
<svg version="1.1" id="Layer_1" xmlns="http://www.w3.org/2000/svg" xmlns:xlink="http://www.w3.org/1999/xlink" x="0px" y="0px"
	 width="253.968px" height="253.968px" viewBox="0 0 253.968 253.968" enable-background="new 0 0 253.968 253.968"
	 xml:space="preserve">
<g>
	<path fill-rule="evenodd" clip-rule="evenodd" fill="#FFFFFF" d="M196.976,0c-4.323,23.34-8.854,46.473-11.999,70.991
		c19.979-4.685,40.841-8.486,59.992-13.999c-12.981,14.683-36.028,27.962-51.993,42.995c20.876,2.122,40.047,5.948,60.992,7.999
		c-17.723,9.607-35.421,19.239-53.993,27.997c10.371,13.294,28.472,24.187,36.996,35.995c-18.368-2.296-37.243-4.086-54.993-6.999
		c11.274,24.054,22.416,48.241,34.995,70.991c-16.348-8.595-34.758-24.454-52.993-37.995c-2.505-1.86-15.518-13.072-16.998-12.999
		c-2.86,0.143-12.489,13.951-14.998,16.998c-14.377,17.464-29.629,34.962-42.995,51.993c6.16-26.837,17.231-57.425,25.997-84.989
		c-26.578,12.085-56.663,29.326-83.989,43.995c15.596-20.4,39.225-41.431,56.993-62.992C59.469,144.505,30.076,139.903,0,135.983
		c25.385-6.945,52.651-12.007,79.99-16.998c-14.25-13.746-30.709-25.284-46.994-36.996c16.914-0.912,37.682,2.978,56.993,3
		C79.453,63.195,60.54,41.115,47.994,17.998c24.045,16.617,47.802,33.522,71.991,49.994c3.384-15.28,6.046-31.283,7.999-47.994
		c5.438,13.893,9.484,29.178,13.999,43.995C160.139,42.82,178.738,22.092,195.976,0C196.309,0,196.642,0,196.976,0z"/>
</g>
</svg>
