<?xml version="1.0" encoding="utf-8"?>
<!-- Generator: Adobe Illustrator 13.0.0, SVG Export Plug-In . SVG Version: 6.00 Build 14948)  -->
<!DOCTYPE svg PUBLIC "-//W3C//DTD SVG 1.1//EN" "http://www.w3.org/Graphics/SVG/1.1/DTD/svg11.dtd">
<svg version="1.1" id="Layer_1" xmlns="http://www.w3.org/2000/svg" xmlns:xlink="http://www.w3.org/1999/xlink" x="0px" y="0px"
	 width="254.969px" height="254.97px" viewBox="0 0 254.969 254.97" enable-background="new 0 0 254.969 254.97"
	 xml:space="preserve">
<g>
	<path fill-rule="evenodd" clip-rule="evenodd" fill="#FFFFFF" d="M34.996,0c0.667,0,1.333,0,2,0
		c24.413,9.099,64.536,8.784,88.989,0c1,0,2,0,3,0c24.453,8.784,64.576,9.099,88.989,0c0.667,0,1.333,0,2,0
		c19.268,28.045,34.894,58.491,34.995,98.988c0.17,67.135-42.063,118.007-90.988,141.982c-11.775,5.771-26.946,13.869-35.996,13.998
		c-14.12,0.202-41.541-15.681-51.993-21.997C33.218,207.124,7.253,165.56,0,105.987c0-4.666,0-9.332,0-13.999
		C3.315,52.976,17.356,24.688,34.996,0z"/>
</g>
</svg>
